<mxfile host="app.diagrams.net" modified="2024-04-25T01:56:07.075Z" agent="Mozilla/5.0 (Windows NT 10.0; Win64; x64) AppleWebKit/537.36 (KHTML, like Gecko) Chrome/124.0.0.0 Safari/537.36 Edg/124.0.0.0" etag="C2XgyZg5H8eQSOi6QwcW" version="24.3.0" type="github">
  <diagram name="Page-1" id="iICfG0qcy3JDbrE6iLZp">
    <mxGraphModel dx="1386" dy="785" grid="1" gridSize="10" guides="1" tooltips="1" connect="1" arrows="1" fold="1" page="1" pageScale="1" pageWidth="850" pageHeight="1100" math="0" shadow="0">
      <root>
        <mxCell id="0" />
        <mxCell id="1" parent="0" />
        <mxCell id="V_-9yG9TcdWKESNTVIgh-1" value="" style="endArrow=none;html=1;rounded=0;" edge="1" parent="1">
          <mxGeometry width="50" height="50" relative="1" as="geometry">
            <mxPoint x="470" y="550" as="sourcePoint" />
            <mxPoint x="470" y="190" as="targetPoint" />
          </mxGeometry>
        </mxCell>
        <mxCell id="V_-9yG9TcdWKESNTVIgh-3" value="&lt;b&gt;Google Cloud Platform&lt;/b&gt;" style="text;html=1;align=center;verticalAlign=middle;whiteSpace=wrap;rounded=0;" vertex="1" parent="1">
          <mxGeometry x="600" y="60" width="160" height="30" as="geometry" />
        </mxCell>
        <mxCell id="V_-9yG9TcdWKESNTVIgh-4" value="&lt;b&gt;Microsoft Azure&lt;/b&gt;" style="text;html=1;align=center;verticalAlign=middle;whiteSpace=wrap;rounded=0;" vertex="1" parent="1">
          <mxGeometry x="140" y="60" width="120" height="30" as="geometry" />
        </mxCell>
        <mxCell id="V_-9yG9TcdWKESNTVIgh-6" value="Azure Kubernetes Services (AKS)" style="rounded=0;whiteSpace=wrap;html=1;" vertex="1" parent="1">
          <mxGeometry x="140" y="200" width="120" height="60" as="geometry" />
        </mxCell>
        <mxCell id="V_-9yG9TcdWKESNTVIgh-7" value="Google Kubernetes Engine (GKE)" style="rounded=0;whiteSpace=wrap;html=1;" vertex="1" parent="1">
          <mxGeometry x="610" y="200" width="120" height="60" as="geometry" />
        </mxCell>
        <mxCell id="V_-9yG9TcdWKESNTVIgh-8" value="Mongo DB" style="shape=cylinder3;whiteSpace=wrap;html=1;boundedLbl=1;backgroundOutline=1;size=15;" vertex="1" parent="1">
          <mxGeometry x="630" y="310" width="60" height="80" as="geometry" />
        </mxCell>
        <mxCell id="V_-9yG9TcdWKESNTVIgh-9" value="Apache Kafka" style="rounded=1;whiteSpace=wrap;html=1;" vertex="1" parent="1">
          <mxGeometry x="600" y="420" width="120" height="60" as="geometry" />
        </mxCell>
        <mxCell id="V_-9yG9TcdWKESNTVIgh-10" value="eCommerce Engine" style="rounded=0;whiteSpace=wrap;html=1;" vertex="1" parent="1">
          <mxGeometry x="600" y="520" width="120" height="60" as="geometry" />
        </mxCell>
      </root>
    </mxGraphModel>
  </diagram>
</mxfile>
